<svg version="1.1" xmlns="http://www.w3.org/2000/svg" x="0" y="0" viewBox="0 0 56 88" width="56" height="88" xml:space="preserve"><style>.st0{fill:#eff1f4}.st1{fill:#cfd3d9}</style><path class="st0" d="M21 4.7h2.3v11.7H21V4.7zm11.7 0H35v11.7h-2.3V4.7z"/><path class="st1" d="M11.7 82.8c0-1.3 1-2.3 2.3-2.3s2.3 1 2.3 2.3v2.3c0 1.3-1 2.3-2.3 2.3s-2.3-1-2.3-2.3v-2.3zm28 0c0-1.3 1-2.3 2.3-2.3s2.3 1 2.3 2.3v2.3c0 1.3-1 2.3-2.3 2.3s-2.3-1-2.3-2.3v-2.3zM17.5 2.3c0-1.3 1-2.3 2.3-2.3h16.3c1.3 0 2.3 1 2.3 2.3 0 1.3-1 2.3-2.3 2.3H19.8c-1.3.1-2.3-1-2.3-2.3zM19.8 15.2c0-.6.5-1.2 1.2-1.2h2.3c.6 0 1.2.5 1.2 1.2h-4.7zm11.7 0c0-.6.5-1.2 1.2-1.2H35c.6 0 1.2.5 1.2 1.2h-4.7z"/><path class="st0" d="M0 26.8c0-6.4 5.2-11.7 11.7-11.7h32.7c6.4 0 11.7 5.2 11.7 11.7v44.3c0 6.4-5.2 11.7-11.7 11.7H11.7C5.2 82.8 0 77.6 0 71.2V26.8z"/><path d="M17.5 30.9v36.2c0 1-.8 1.8-1.8 1.8s-1.8-.8-1.8-1.8V30.9c0-1 .8-1.8 1.8-1.8 1 .1 1.8.9 1.8 1.8zm8.2 0v36.2c0 1-.8 1.8-1.8 1.8s-1.8-.8-1.8-1.8V30.9c0-1 .8-1.8 1.8-1.8 1 .1 1.8.9 1.8 1.8zm8.1 0v36.2c0 1-.8 1.8-1.8 1.8s-1.8-.8-1.8-1.8V30.9c0-1 .8-1.8 1.8-1.8 1 .1 1.8.9 1.8 1.8zm8.2 0v36.2c0 1-.8 1.8-1.8 1.8s-1.8-.8-1.8-1.8V30.9c0-1 .8-1.8 1.8-1.8 1 .1 1.8.9 1.8 1.8z" opacity=".5" fill="#fff"/></svg>