<svg xmlns="http://www.w3.org/2000/svg" viewBox="0 0 56 88" xml:space="preserve" width="56" height="88"><linearGradient id="a" gradientUnits="userSpaceOnUse" x1="21" y1="77.388" x2="23.333" y2="77.388" gradientTransform="matrix(1 0 0 -1 0 87.89)"><stop offset="0" stop-color="#cac5d8"/><stop offset=".1" stop-color="#e9e5f5"/><stop offset=".256" stop-color="#d6d1e3"/><stop offset=".543" stop-color="#e9e5f5"/><stop offset=".805" stop-color="#d4cfe2"/><stop offset=".877" stop-color="#ccc7da"/><stop offset="1" stop-color="#b6b1c4"/></linearGradient><path fill="url(#a)" d="M21 4.7h2.3v11.7H21z"/><linearGradient id="b" gradientUnits="userSpaceOnUse" x1="32.668" y1="77.388" x2="35.001" y2="77.388" gradientTransform="matrix(1 0 0 -1 0 87.89)"><stop offset="0" stop-color="#cac5d8"/><stop offset=".1" stop-color="#e9e5f5"/><stop offset=".256" stop-color="#d6d1e3"/><stop offset=".543" stop-color="#e9e5f5"/><stop offset=".805" stop-color="#d4cfe2"/><stop offset=".877" stop-color="#ccc7da"/><stop offset="1" stop-color="#b6b1c4"/></linearGradient><path fill="url(#b)" d="M32.7 4.7H35v11.7h-2.3z"/><path d="M11.7 82.8c0-1.3 1-2.3 2.3-2.3s2.3 1 2.3 2.3v2.3c0 1.3-1 2.3-2.3 2.3s-2.3-1-2.3-2.3v-2.3zm28 0c0-1.3 1-2.3 2.3-2.3s2.3 1 2.3 2.3v2.3c0 1.3-1 2.3-2.3 2.3s-2.3-1-2.3-2.3v-2.3zM17.5 2.3c0-1.3 1-2.3 2.3-2.3h16.3c1.3 0 2.3 1 2.3 2.3 0 1.3-1 2.3-2.3 2.3H19.8c-1.3.1-2.3-1-2.3-2.3z" fill="#1e0511"/><linearGradient id="c" gradientUnits="userSpaceOnUse" x1="27.892" y1="73.21" x2="28.107" y2="5.023" gradientTransform="matrix(1 0 0 -1 0 87.89)"><stop offset="0" stop-color="#ffc7f3"/><stop offset=".042" stop-color="#fd77b3"/><stop offset=".935" stop-color="#f82286"/><stop offset="1" stop-color="#c1447f"/></linearGradient><path d="M0 26.8c0-6.4 5.2-11.7 11.7-11.7h32.7c6.4 0 11.7 5.2 11.7 11.7v44.3c0 6.4-5.2 11.7-11.7 11.7H11.7C5.2 82.8 0 77.6 0 71.2V26.8z" fill="url(#c)"/><linearGradient id="d" gradientUnits="userSpaceOnUse" x1="14" y1="49.001" x2="38.956" y2="49.001"><stop offset="0" stop-color="#fff" stop-opacity=".49"/><stop offset="1" stop-color="#fff" stop-opacity=".3"/></linearGradient><path d="M17.5 30.9v36.2c0 1-.8 1.8-1.8 1.8s-1.8-.8-1.8-1.8V30.9c0-1 .8-1.8 1.8-1.8 1 .1 1.8.9 1.8 1.8zm8.2 0v36.2c0 1-.8 1.8-1.8 1.8s-1.8-.8-1.8-1.8V30.9c0-1 .8-1.8 1.8-1.8 1 .1 1.8.9 1.8 1.8zm8.1 0v36.2c0 1-.8 1.8-1.8 1.8s-1.8-.8-1.8-1.8V30.9c0-1 .8-1.8 1.8-1.8 1 .1 1.8.9 1.8 1.8zm8.2 0v36.2c0 1-.8 1.8-1.8 1.8s-1.8-.8-1.8-1.8V30.9c0-1 .8-1.8 1.8-1.8 1 .1 1.8.9 1.8 1.8z" opacity=".5" fill="url(#d)"/><linearGradient id="e" gradientUnits="userSpaceOnUse" x1="31.5" y1="73.306" x2="36.167" y2="73.306" gradientTransform="matrix(1 0 0 -1 0 87.89)"><stop offset="0" stop-color="#aba4bf"/><stop offset=".397" stop-color="#ccc7dc"/><stop offset="1" stop-color="#a19ab6"/></linearGradient><path d="M19.8 15.2c0-.6.5-1.2 1.2-1.2h2.3c.6 0 1.2.5 1.2 1.2h-4.7z" fill="url(#e)"/><linearGradient id="f" gradientUnits="userSpaceOnUse" x1="31.5" y1="73.306" x2="36.167" y2="73.306" gradientTransform="matrix(1 0 0 -1 0 87.89)"><stop offset="0" stop-color="#aba4bf"/><stop offset=".397" stop-color="#ccc7dc"/><stop offset="1" stop-color="#a19ab6"/></linearGradient><path d="M31.5 15.2c0-.6.5-1.2 1.2-1.2H35c.6 0 1.2.5 1.2 1.2h-4.7z" fill="url(#f)"/></svg>